<svg xmlns="http://www.w3.org/2000/svg" viewBox="1.8200000000000005 0.6869999999999985 33.040000000000006 52.834">
  <path d="M23.54 53.148c-10.788-2.082-17.168-5.87-20.06-11.91-1.008-2.107-1.512-4.097-1.66-6.563-.404-6.683 2.56-15.706 8.595-26.162 1.03-1.787 4.435-7.282 4.847-7.826.206-.272.937.195 7.684 4.904 4.1 2.862 7.736 5.418 8.078 5.679l.622.474-.432 1.535c-.562 2-.615 4.128-.122 4.972.464.794 1.605 1.63 2.72 1.992.51.165.982.35 1.048.41.066.06-.028.661-.208 1.335-.18.674-1.869 7.053-3.752 14.175-1.883 7.123-3.687 13.935-4.009 15.138-.478 1.79-.645 2.193-.917 2.22-.184.018-1.279-.15-2.434-.373z" fill="#fff"/>
</svg>