<?xml version="1.0" encoding="UTF-8" standalone="no"?>
<svg
   xmlns:dc="http://purl.org/dc/elements/1.1/"
   xmlns:cc="http://creativecommons.org/ns#"
   xmlns:rdf="http://www.w3.org/1999/02/22-rdf-syntax-ns#"
   xmlns:svg="http://www.w3.org/2000/svg"
   xmlns="http://www.w3.org/2000/svg"
   xmlns:sodipodi="http://sodipodi.sourceforge.net/DTD/sodipodi-0.dtd"
   xmlns:inkscape="http://www.inkscape.org/namespaces/inkscape"
   version="1.1"
   id="svg2"
   width="210"
   height="320"
   viewBox="0 0 210 320"
   sodipodi:docname="bodytwist3.svg"
   inkscape:version="1.0.2-2 (e86c870879, 2021-01-15)">
  <metadata
     id="metadata8">
    <rdf:RDF>
      <cc:Work
         rdf:about="">
        <dc:format>image/svg+xml</dc:format>
        <dc:type
           rdf:resource="http://purl.org/dc/dcmitype/StillImage" />
        <dc:title></dc:title>
      </cc:Work>
    </rdf:RDF>
  </metadata>
  <defs
     id="defs6" />
  <sodipodi:namedview
     pagecolor="#ffffff"
     bordercolor="#666666"
     borderopacity="1"
     objecttolerance="10"
     gridtolerance="10"
     guidetolerance="10"
     inkscape:pageopacity="0"
     inkscape:pageshadow="2"
     inkscape:window-width="1920"
     inkscape:window-height="1017"
     id="namedview4"
     showgrid="false"
     showborder="true"
     inkscape:zoom="2.6984127"
     inkscape:cx="100"
     inkscape:cy="169.69081"
     inkscape:window-x="1912"
     inkscape:window-y="-8"
     inkscape:window-maximized="1"
     inkscape:current-layer="g10" />
  <g
     inkscape:groupmode="layer"
     inkscape:label="Image"
     id="g10">
    <path
       style="fill:#000000"
       d="M 138.36013,314.67426 C 58.976802,300.89472 16.104581,268.23241 8.1522618,215.47508 3.0613818,181.70109 12.452171,140.85922 37.066572,89.722613 48.501892,65.965633 66.305592,35.146595 82.993802,10.220414 l 5.29881,-7.914517 46.938998,32.711548 c 25.81644,17.991352 48.00954,33.468344 49.31798,34.393317 l 2.37899,1.681767 -2.87899,9.8155 c -3.7026,12.623493 -4.02949,24.613611 -0.79041,28.992181 2.66959,3.60873 9.25239,7.27821 16.90038,9.42086 3.30607,0.92623 5.96784,2.07069 5.91504,2.54326 -0.56999,5.10144 -52.03523,195.33946 -52.83012,195.2832 -0.59064,-0.0418 -7.28859,-1.15478 -14.88435,-2.47327 z m 14.22605,-6.20072 c 0.54597,-2.0625 11.82386,-44.42695 25.06198,-94.14323 13.23813,-49.71628 23.94627,-90.46456 23.79588,-90.55174 -0.15039,-0.0872 -2.75786,-0.91324 -5.79438,-1.83567 -8.56876,-2.60302 -14.32848,-6.74399 -16.97,-12.20064 -1.98786,-4.10637 -2.21053,-5.75047 -1.74224,-12.86343 0.30139,-4.577875 1.65888,-11.645786 3.09461,-16.112408 1.40673,-4.376409 2.46339,-8.03673 2.34813,-8.134048 -0.11526,-0.09732 -21.07805,-14.701466 -46.58399,-32.453663 L 89.421732,7.9019893 l -1.8236,2.4107697 c -1.00298,1.325924 -6.73265,10.28577 -12.7326,19.91077 -49.3721,79.201751 -69.7207002,139.209341 -62.733561,185.000011 5.67699,37.20459 29.860791,64.15432 72.715401,81.03195 17.451158,6.87287 52.159058,15.54507 63.534688,15.87493 2.89507,0.084 3.30925,-0.27632 4.20412,-3.65688 z"
       id="path14" />
  </g>
</svg>
